<svg width="400" height="400" viewBox="0 0 400 400" fill="none" xmlns="http://www.w3.org/2000/svg">
<path fill-rule="evenodd" clip-rule="evenodd" d="M327.195 397.506C334.607 395.871 334.243 389.385 358.111 389.385C362.37 389.385 370.844 392.596 376.01 393.775C385.885 396.03 404.178 404.552 404.178 404.552C404.178 404.552 412.331 409.611 425.368 409.866C438.405 410.122 445.496 406.481 459.266 406.481C469.307 406.481 478.023 409.866 486.625 409.866C495.227 409.866 507.114 408.741 507.52 401.948C512.985 310.428 483.621 272.495 463.469 240.271C431.513 189.175 440.328 111.688 399.942 149.44C389.697 159.017 388.471 166.915 370.347 177.153C355.919 185.303 344.681 186.921 337.031 191.904C315.853 205.699 304.731 224.919 289.997 234.114C264.268 250.173 255.829 243.664 235.49 254.652C232.805 256.103 229.828 258.149 226.515 259.522C219.925 262.254 212.417 264.465 206.109 269.028C201.011 272.715 193.171 283.34 193.171 283.34L144.848 300.612C144.848 300.612 134.114 305.729 138.604 323.987C143.094 342.245 157.221 382.643 157.221 382.643C157.221 382.643 170.675 382.446 181.956 389.385C193.237 396.323 196.934 411.493 196.934 411.493C196.934 411.493 223.994 403.11 235.49 399.001C238.646 397.873 245.788 395.024 256.703 394.491C268.669 393.906 277.69 399.989 295.086 400.876C304.861 401.374 319.784 399.14 327.195 397.506Z" fill="#9400FF"/>
<path fill-rule="evenodd" clip-rule="evenodd" d="M516.737 341.068C516.326 340.024 514.594 340.509 514.265 341.583C513.949 342.613 514.424 343.691 514.86 344.683L514.916 344.812C519.489 355.245 515.849 368.768 506.706 375.314C505.605 374.622 504.814 373.536 504.026 372.454C503.147 371.247 502.273 370.046 500.976 369.404C499.841 368.843 498.539 368.798 497.28 368.762L486.056 368.447C484.69 368.409 483.047 368.524 482.384 369.749C480.939 372.42 477.076 373.485 474.737 371.596C472.397 369.707 472.798 365.192 475.569 364.076C475.775 363.994 475.989 363.928 476.203 363.862C476.67 363.718 477.136 363.575 477.506 363.258C477.991 362.844 478.225 362.205 478.439 361.597L482.795 349.219C483.068 348.441 483.346 347.641 483.326 346.815C483.287 345.131 482.047 343.746 480.775 342.681C480.573 342.512 480.367 342.345 480.161 342.177L480.161 342.177C479.066 341.289 477.954 340.387 477.351 339.112C476.634 337.597 477.054 335.353 478.626 334.867C486.871 332.315 496.14 330.696 503.817 334.702C504.031 334.814 504.246 334.931 504.461 335.048C505.563 335.647 506.682 336.256 507.915 336.291C509.388 336.334 511.018 335.096 510.749 333.609C510.577 332.659 509.744 331.958 508.946 331.286C507.987 330.479 507.079 329.715 507.426 328.609C507.564 328.173 507.893 327.832 508.211 327.509L517.981 317.602C518.318 315.728 515.663 314.705 513.953 315.447C513.106 315.814 512.376 316.401 511.647 316.987C510.904 317.584 510.161 318.181 509.294 318.546C505.82 320.01 502.1 317.303 499.35 314.68C489.508 305.29 480.778 294.672 473.416 283.134C473.078 282.605 472.73 282.023 472.774 281.392C472.831 280.581 473.505 279.981 474.127 279.477L490.371 266.314C491.679 265.255 493.726 264.242 494.803 265.547L524.716 301.798C525.191 302.375 525.683 302.985 525.831 303.724C526.134 305.245 524.898 306.62 523.647 307.491C523.452 307.627 523.252 307.76 523.051 307.895C521.96 308.623 520.839 309.371 520.355 310.584C519.782 312.02 521.032 314.137 522.431 313.549C529.596 308.268 537.086 302.842 545.775 301.275C547.419 300.978 549.206 300.848 550.669 301.673C553.925 303.507 553.467 308.427 552.229 312.021C549.971 318.579 546.624 324.739 542.374 330.158C541.528 331.237 540.588 332.534 540.945 333.87C541.45 335.758 544.006 335.991 545.835 335.431C546.124 335.342 546.418 335.244 546.714 335.145L546.715 335.145C548.291 334.618 549.937 334.068 551.37 334.813C552.123 335.205 552.673 335.902 553.2 336.578L579.9 370.885C573.751 375.847 567.492 380.665 561.129 385.334C560.5 385.795 559.798 386.277 559.028 386.211C558.116 386.134 557.449 385.328 556.889 384.585L531.283 350.593C530.191 349.143 531.219 346.976 532.625 345.846C533.134 345.438 533.692 345.089 534.248 344.74L534.249 344.74C535.232 344.125 536.21 343.512 536.902 342.583C537.987 341.127 537.699 338.413 535.934 338.138C534.93 337.981 534.007 338.698 533.282 339.427C532.715 339.997 532.176 340.607 531.636 341.217L531.636 341.217C530.248 342.787 528.86 344.357 527.006 345.238C523.27 347.016 518.276 344.988 516.737 341.068ZM480.862 362.187C480.812 362.318 480.762 362.453 480.764 362.594C480.771 362.995 481.219 363.265 481.608 363.223C481.997 363.182 482.329 362.928 482.639 362.684L490.91 356.162C491.341 355.823 491.813 355.401 491.811 354.844C491.809 354.409 491.512 354.041 491.231 353.715L487.597 349.489C487.407 349.269 487.203 349.039 486.93 348.952C486.182 348.716 485.605 349.625 485.322 350.374L480.862 362.187ZM494.202 358.123C494.44 358.219 494.616 358.426 494.782 358.626L499.719 364.562C499.842 365.04 499.175 365.28 498.693 365.289L485.514 365.551C484.868 365.564 484.188 365.569 483.622 365.249C486.107 362.099 489.428 359.65 493.131 358.239C493.475 358.108 493.86 357.985 494.202 358.123Z" fill="white"/>
<path fill-rule="evenodd" clip-rule="evenodd" d="M230.746 339.969C231.007 336.054 233.811 332.449 237.472 331.319C239.673 330.64 241.205 328.472 241.751 326.182C242.297 323.891 242.011 321.483 241.588 319.165C240.24 311.766 237.122 304.129 230.847 300.229C224.043 296.001 215.273 297.213 207.774 299.937C204.506 301.123 201.109 302.762 199.392 305.853C198.336 307.754 198.046 309.988 197.776 312.159C197.224 316.598 196.671 321.079 197.07 325.535C197.469 329.991 198.904 334.482 201.867 337.765C203.93 340.051 207.092 341.719 209.98 340.753C212.242 339.995 214.318 342.154 216.461 343.217C219.385 344.669 222.838 344.068 226.028 343.436C228.08 343.029 230.604 342.109 230.746 339.969Z" fill="white"/>
<path fill-rule="evenodd" clip-rule="evenodd" d="M307.223 399.183C314.634 398.402 322.045 397.621 329.456 396.84C328.133 398.916 325.47 399.502 323.079 399.875C309.021 402.072 294.422 403.044 280.771 398.957C266.465 394.675 250.928 394.826 236.704 399.387C236.817 397.563 238.809 396.585 240.515 396.061C252.014 392.531 264.458 392.307 276.071 395.419C281.209 396.796 286.207 398.815 291.469 399.553C296.686 400.286 301.985 399.734 307.223 399.183Z" fill="#00160A"/>
<path fill-rule="evenodd" clip-rule="evenodd" d="M249.072 247.288C256.337 245.4 264.041 245.34 271.063 242.654C271.436 242.948 271.809 243.243 272.182 243.537C268.895 246.808 263.8 246.844 259.237 247.238C250.562 247.986 242.062 250.783 234.58 255.349C230.99 257.539 227.532 260.175 223.467 261.159C213.78 263.503 204.863 269.088 198.403 276.859C197.967 276.079 197.236 275.479 196.399 275.214C201.535 270.56 207.193 266.512 213.226 263.177C216.875 261.16 220.655 259.405 224.431 257.653C227.606 256.179 230.781 254.705 233.956 253.231C238.879 250.946 243.834 248.649 249.072 247.288Z" fill="#00160A"/>
<path fill-rule="evenodd" clip-rule="evenodd" d="M390.882 160.075C389.614 161.851 388.428 163.697 386.984 165.325C385.075 167.48 382.758 169.205 380.443 170.89C373.444 175.981 366.219 180.886 358.232 184.1C354.511 185.597 350.653 186.715 346.941 188.236C335.311 193.003 325.495 201.587 317.221 211.233C316.577 211.983 315.89 212.776 314.957 213.063C314.024 213.349 312.797 212.865 312.658 211.875C322.388 202.394 332.389 192.726 344.695 187.237C350.177 184.792 356.007 183.232 361.464 180.729C366.892 178.239 371.878 174.849 376.761 171.367C380.01 169.051 383.249 166.665 385.954 163.703C390.212 159.04 393.13 152.977 398.316 149.439C398.945 149.01 400.049 148.788 400.237 149.539C396.764 152.696 393.622 156.235 390.882 160.075Z" fill="#00160A"/>
<path fill-rule="evenodd" clip-rule="evenodd" d="M146.416 198.053C147.755 200.74 150.167 202.841 152.967 203.761C152.955 204.097 152.943 204.432 152.93 204.767C150.521 206.262 149.224 209.43 149.87 212.242C150.068 213.108 148.862 213.719 148.079 213.338C147.295 212.957 146.901 212.069 146.532 211.264C146.069 210.254 145.535 209.25 144.731 208.497C143.928 207.744 142.806 207.273 141.742 207.503C140.962 207.671 140.248 206.819 140.261 206.001C140.274 205.184 140.791 204.466 141.361 203.894C141.93 203.322 142.584 202.818 143.008 202.125C143.503 201.314 143.631 200.327 143.684 199.372C143.716 198.776 143.729 198.157 143.991 197.624C144.253 197.092 144.853 196.678 145.408 196.856C145.913 197.018 146.175 197.57 146.416 198.053V198.053Z" fill="#00160A"/>
<path fill-rule="evenodd" clip-rule="evenodd" d="M438.695 410.562C428.297 412.006 417.571 410.89 407.667 407.335C405.964 406.723 403.953 405.505 404.199 403.671C413.89 408.016 424.69 409.723 435.206 408.572C442.212 407.804 449.077 405.798 456.117 405.523C464.088 405.213 471.958 407.13 479.861 408.242C487.764 409.353 496.132 409.593 503.373 406.158C504.049 405.837 504.778 405.476 505.507 405.633C506.237 405.79 506.804 406.772 506.306 407.341C506.155 407.514 505.94 407.612 505.732 407.703C499.919 410.245 493.576 411.504 487.259 411.371C477.117 411.158 467.217 407.42 457.079 407.766C450.882 407.977 444.839 409.709 438.695 410.562Z" fill="#00160A"/>
<path fill-rule="evenodd" clip-rule="evenodd" d="M472.412 225.733C472.524 226.718 472.761 228.096 471.832 228.369C470.965 228.624 470.413 227.481 470.05 226.634C469.073 224.357 466.751 222.757 464.327 222.691C463.367 222.665 463.206 221.109 463.88 220.407C464.554 219.706 465.581 219.539 466.434 219.088C467.764 218.385 468.642 216.987 469.075 215.518C469.507 214.048 469.549 212.492 469.587 210.958C469.597 210.569 470.029 210.303 470.404 210.353C470.78 210.404 471.089 210.678 471.336 210.973C473.026 212.993 472.808 216.286 474.743 218.06C475.643 218.883 476.917 219.272 477.613 220.282C477.07 220.949 476.108 220.984 475.296 221.233C473.476 221.793 472.192 223.796 472.412 225.733H472.412Z" fill="#00160A"/>
<path fill-rule="evenodd" clip-rule="evenodd" d="M195.362 218.995C196.71 220.017 197.415 221.69 198.51 222.994C199.669 224.376 201.294 225.338 203.04 225.677C200.568 227.074 198.947 229.927 198.981 232.822C198.989 233.506 198.889 234.443 198.225 234.502C198.054 234.518 197.885 234.459 197.727 234.391C195.127 233.268 194.061 229.406 191.26 229.071C190.271 228.952 190.096 227.439 190.669 226.605C191.242 225.77 192.207 225.302 192.835 224.511C194.104 222.914 193.804 220.294 195.362 218.995Z" fill="#00160A"/>
<path fill-rule="evenodd" clip-rule="evenodd" d="M259.195 183.562C258.577 183.941 257.757 183.541 257.306 182.965C256.856 182.389 256.624 181.662 256.193 181.071C255.082 179.548 252.858 179.17 251.878 177.556C251.567 177.043 251.44 176.305 251.858 175.879C252.024 175.71 252.25 175.62 252.459 175.511C253.954 174.74 254.705 172.99 255.075 171.316C255.444 169.642 255.562 167.877 256.309 166.341C256.495 165.959 256.744 165.573 257.131 165.416C257.519 165.26 258.058 165.46 258.117 165.883C258.334 167.423 258.551 168.962 258.767 170.502C258.893 171.393 259.029 172.315 259.507 173.07C259.986 173.825 260.908 174.363 261.745 174.092C262.327 173.903 262.792 174.746 262.583 175.334C262.374 175.922 261.817 176.285 261.361 176.701C260.223 177.735 259.592 179.33 259.706 180.886C259.776 181.848 260.002 183.068 259.195 183.562Z" fill="#00160A"/>
<path fill-rule="evenodd" clip-rule="evenodd" d="M159.047 297.728C159.726 297.325 160.396 298.545 159.944 299.204C159.492 299.862 158.61 299.984 157.835 300.113C152.917 300.933 148.677 304.314 145.727 308.434C144.181 310.593 142.889 313.186 143.234 315.841C143.421 317.283 143.965 319.066 142.844 319.955C141.537 318.527 140.782 316.582 140.773 314.623C140.758 311.167 142.921 308.133 145.149 305.542C147.709 302.565 150.804 299.628 154.651 299.203C156.195 299.033 157.703 298.527 159.047 297.728Z" fill="#00160A"/>
<path fill-rule="evenodd" clip-rule="evenodd" d="M404.49 432.206C406.237 430.731 407.416 428.568 407.725 426.269C407.842 425.402 409.203 425.364 409.718 426.061C410.233 426.758 410.163 427.72 410.137 428.594C410.102 429.733 410.196 430.924 410.762 431.905C411.327 432.886 412.474 433.588 413.551 433.308C413.974 433.198 414.37 433.682 414.339 434.129C414.308 434.575 413.991 434.945 413.654 435.23C412.337 436.337 410.365 436.829 409.743 438.456C409.524 439.029 409.518 439.662 409.405 440.267C409.292 440.873 409.025 441.507 408.487 441.781C407.949 442.055 407.135 441.718 407.133 441.102C407.126 438.954 406.082 436.836 404.401 435.559C403.914 435.188 403.33 434.815 403.222 434.203C403.076 433.38 403.86 432.738 404.49 432.206L404.49 432.206Z" fill="#00160A"/>
<path fill-rule="evenodd" clip-rule="evenodd" d="M161.822 316.577C163.958 318.222 166.572 319.207 169.238 319.37C169.847 319.408 169.804 320.347 169.564 320.922C168.878 322.563 168.193 324.205 167.507 325.846C167.891 326.419 168.293 327.082 168.143 327.76C167.994 328.437 166.939 328.802 166.648 328.175C165.523 325.747 162.686 324.297 160.12 324.84C160.249 323.911 160.747 323.088 161.119 322.232C161.885 320.471 162.133 318.478 161.822 316.577Z" fill="#00160A"/>
<path fill-rule="evenodd" clip-rule="evenodd" d="M294.306 382.97C293.405 380.703 291.112 379.094 288.726 379.055C288.074 376.671 290.881 374.703 291.131 372.241C291.183 371.73 291.122 371.204 291.25 370.707C291.378 370.211 291.784 369.728 292.283 369.763C292.979 371.502 294.231 373.002 295.8 373.974C296.208 374.227 296.651 374.458 296.925 374.858C297.198 375.258 297.219 375.894 296.828 376.172C294.813 377.602 294.467 380.462 294.306 382.97Z" fill="#00160A"/>
<path fill-rule="evenodd" clip-rule="evenodd" d="M206.898 366.014C207.227 365.849 207.61 365.799 207.969 365.873C208.25 368.373 210.087 370.615 212.439 371.329C211.385 373.506 210.797 375.918 210.728 378.348C210.493 378.543 210.153 378.331 209.926 378.125C208.121 376.487 206.317 374.849 204.512 373.211C206.256 371.308 207.149 368.614 206.898 366.014Z" fill="#00160A"/>
<path fill-rule="evenodd" clip-rule="evenodd" d="M447.886 344.204C447.588 344.029 447.263 343.859 446.921 343.886C446.614 343.909 446.331 344.091 446.022 344.097C445.714 344.104 445.371 343.768 445.543 343.505C448.502 341.892 449.703 338.255 450.645 334.956C450.799 334.661 451.272 334.743 451.457 335.018C451.642 335.293 451.63 335.653 451.632 335.987C451.64 337.436 452.054 338.91 452.951 340.028C453.849 341.146 455.26 341.862 456.666 341.735C454.534 343.243 452.207 345.066 451.887 347.703C450.777 346.299 449.413 345.106 447.886 344.204Z" fill="#00160A"/>
<path fill-rule="evenodd" clip-rule="evenodd" d="M214.888 398.435C218.895 396.778 223.058 395.01 225.901 391.673C226.244 391.269 226.601 390.821 227.107 390.686C227.613 390.552 228.27 390.953 228.168 391.479C227.668 394.041 225.159 395.563 222.897 396.762C221.521 397.492 220.146 398.221 218.77 398.95C218.09 399.311 217.377 399.68 216.611 399.686C215.845 399.692 215.017 399.209 214.888 398.435L214.888 398.435Z" fill="#00160A"/>
<path fill-rule="evenodd" clip-rule="evenodd" d="M372.108 393.917C372.638 393.1 373.783 393.086 374.734 393.187C379.199 393.663 383.605 394.715 387.816 396.31C391.193 397.589 394.456 399.223 397.406 401.339C394.367 401.562 391.513 400.022 388.698 398.826C384.841 397.188 380.775 396.142 376.726 395.102C375.186 394.707 373.647 394.312 372.108 393.917Z" fill="#00160A"/>
<path fill-rule="evenodd" clip-rule="evenodd" d="M152.179 355.133C151.17 352.612 150.237 350.058 149.382 347.478C149.171 346.844 148.966 346.208 148.76 345.572C147.045 340.269 145.331 334.965 143.811 329.6C143.634 328.974 143.818 327.952 144.422 328.153C144.67 328.235 144.793 328.514 144.887 328.763C146.874 334.023 148.86 339.283 150.847 344.543C152.184 348.082 153.543 351.764 153.301 355.552C153.283 355.837 152.894 355.957 152.651 355.818C152.407 355.68 152.285 355.397 152.179 355.133Z" fill="#00160A"/>
<path fill-rule="evenodd" clip-rule="evenodd" d="M228.294 378.728C228.502 379.634 228.291 381.041 227.398 380.876C224.704 370.897 222.145 360.88 219.723 350.829C219.642 350.491 219.561 350.128 219.68 349.802C219.798 349.475 220.203 349.237 220.487 349.427C220.63 349.523 220.703 349.694 220.768 349.855C222.878 355.137 224.162 360.721 225.437 366.278C226.389 370.428 227.342 374.578 228.294 378.728Z" fill="#00160A"/>
<path fill-rule="evenodd" clip-rule="evenodd" d="M142.159 276.875C141.768 277.181 141.378 277.487 140.987 277.793C132.39 271.307 121.992 267.365 111.35 266.557C111.202 266.062 111.159 265.534 111.225 265.021C120.844 265.096 130.425 268.086 138.456 273.518C139.84 274.454 141.203 275.486 142.159 276.875Z" fill="#00160A"/>
<path fill-rule="evenodd" clip-rule="evenodd" d="M170.459 465.207C182.652 458.541 193.253 448.837 201.094 437.165C202.662 434.83 204.121 432.419 205.579 430.01C206.176 429.023 206.773 428.037 207.37 427.051C208.366 430.173 206.338 433.383 204.416 436.012C195.797 447.803 186.439 460.177 172.972 465.302C172.138 465.619 171.08 465.86 170.459 465.207V465.207Z" fill="#00160A"/>
<path fill-rule="evenodd" clip-rule="evenodd" d="M228.378 310.761C229.246 310.408 230.223 310.807 231.036 311.278C232.795 312.297 234.405 313.759 235.131 315.694C235.857 317.629 235.497 320.079 233.916 321.37C233.094 322.042 231.846 321.882 230.968 321.288C230.09 320.694 229.498 319.759 228.931 318.851C227.765 316.983 226.549 314.856 226.999 312.686C227.167 311.875 227.626 311.067 228.378 310.761H228.378Z" fill="#FFB61D"/>
<path fill-rule="evenodd" clip-rule="evenodd" d="M68.4893 328.519C66.9251 328.156 65.5659 326.967 64.9694 325.439C64.3729 323.911 64.5555 322.088 65.4425 320.717C66.5371 319.025 68.5032 318.156 70.4272 317.679C72.3846 317.194 74.4151 317.02 76.4239 317.165C77.1897 317.22 77.9855 317.334 78.6186 317.78C79.1077 318.124 79.4591 318.641 79.721 319.186C80.6044 321.028 80.5135 323.326 79.4875 325.089C78.4615 326.851 76.5324 328.022 74.5332 328.097C72.5044 328.173 70.4694 328.979 68.4893 328.519ZM71.0642 323.996C72.5643 323.915 74.0595 323.738 75.5381 323.466C76.1389 323.356 76.7829 323.203 77.182 322.729C77.5812 322.256 77.532 321.361 76.9574 321.15C74.7587 320.343 72.1986 320.655 70.2455 321.968C69.7939 322.272 69.3255 322.761 69.4651 323.297C69.6279 323.921 70.4354 324.03 71.0642 323.996V323.996Z" fill="#00160A"/>
<path fill-rule="evenodd" clip-rule="evenodd" d="M175.572 280.713C175.826 280.73 175.931 281.097 175.804 281.324C175.695 281.518 175.492 281.627 175.287 281.714L160.677 287.573C160.094 287.807 159.086 287.683 159.266 287.067C159.338 286.819 159.6 286.693 159.834 286.597C165.019 284.471 170.269 282.508 175.572 280.713Z" fill="#00160A"/>
<path fill-rule="evenodd" clip-rule="evenodd" d="M222.836 300.882C221.074 300.973 219.342 301.532 217.821 302.45C216.605 303.184 215.068 302.813 213.709 302.422C212.396 302.045 211.084 301.667 209.771 301.289C209.689 300.881 210.164 300.61 210.552 300.486C214.394 299.26 218.42 298.401 222.427 298.772C226.434 299.142 230.445 300.864 232.986 304.065C229.792 302.404 226.412 300.7 222.836 300.882Z" fill="#00160A"/>
<path fill-rule="evenodd" clip-rule="evenodd" d="M207.231 311.116C207.389 314.297 206.097 317.522 203.804 319.669C203.206 320.23 202.445 320.747 201.645 320.616C200.835 320.484 200.241 319.691 200.094 318.863C199.946 318.036 200.16 317.185 200.441 316.395C201.316 313.941 202.88 311.751 204.896 310.156C205.407 309.752 206.109 309.376 206.66 309.72C207.098 309.994 207.205 310.591 207.231 311.116Z" fill="#FFB61D"/>
<path fill-rule="evenodd" clip-rule="evenodd" d="M306.927 445.039C303.634 444.042 300.034 441.61 300.234 438.094C300.372 435.657 302.324 433.778 304.232 432.321C306.853 430.319 309.667 428.582 312.618 427.142C314.623 426.165 316.967 424.984 317.354 422.742C319.62 409.632 329.337 398.195 341.652 394.002C353.967 389.809 368.365 392.985 377.984 401.92C379.891 403.692 382.243 405.836 384.675 404.978C389.566 403.253 395.032 402.082 399.823 404.08C401.592 404.818 403.378 406.325 403.289 408.282C403.247 409.209 402.782 410.056 402.296 410.838C399.275 415.703 394.909 419.677 389.843 422.175C387.335 423.411 385.691 425.986 384.692 428.65C383.694 431.314 383.221 434.156 382.323 436.857C378.758 447.591 368.371 455.169 357.398 456.514C346.425 457.858 335.21 453.507 326.807 446.141C325.848 445.301 324.656 444.358 323.458 444.764C318.144 446.566 312.295 446.663 306.927 445.039ZM323.657 435.119C324.205 435.391 324.838 435.399 325.447 435.392C338.625 435.234 351.251 430.305 363.549 425.445C368.884 423.336 374.218 421.228 379.552 419.12C380.641 418.689 381.847 418.143 382.259 417.022C382.529 416.286 382.385 415.463 382.199 414.7C380.568 408.031 375.893 402.352 370.062 398.962C364.232 395.572 357.341 394.362 350.656 394.845C341.526 395.505 332.424 399.462 326.527 406.645C320.631 413.829 318.425 424.379 322.045 433.005C322.398 433.845 322.855 434.72 323.657 435.119M380.544 427.499C365.172 434.978 348.76 440.202 331.962 442.964C330.791 443.156 330.287 444.756 330.747 445.878C331.206 446.999 332.272 447.714 333.298 448.326C339.491 452.02 346.499 454.473 353.662 454.579C360.825 454.685 368.138 452.306 373.427 447.348C378.716 442.39 381.732 434.748 380.544 427.499ZM302.985 439.468C303.392 440.74 304.66 441.49 305.878 441.97C310.653 443.851 315.972 443.368 321.041 442.662C341.497 439.812 361.528 433.767 380.23 424.799C387.723 421.206 395.33 416.846 399.767 409.683C400.151 409.062 400.522 408.367 400.449 407.635C400.296 406.094 398.427 405.486 396.919 405.414C393.183 405.234 389.481 406.088 385.834 406.937C384.562 407.233 382.975 407.943 383.093 409.276C383.223 410.739 385.222 411.013 386.605 410.635C387.988 410.257 389.7 409.738 390.661 410.827C391.976 412.316 390.165 414.524 388.504 415.586C375.947 423.616 361.743 428.441 347.691 433.194C344.376 434.316 341.052 435.44 337.633 436.16C334.698 436.778 331.712 437.095 328.731 437.411C325.943 437.706 323.155 438.002 320.366 438.297C318.953 438.447 317.483 438.59 316.148 438.093C314.813 437.595 313.662 436.255 313.846 434.81C314.051 433.21 315.643 432.284 316.833 431.229C318.023 430.174 318.833 428.04 317.551 427.106C313.191 428.926 309.097 431.419 305.451 434.474C303.949 435.732 302.38 437.577 302.985 439.468ZM385.071 415.549C386.23 414.797 387.39 414.046 388.549 413.294C388.903 413.064 389.31 412.69 389.161 412.288C389.031 411.935 388.578 411.875 388.211 411.872C387.152 411.863 385.976 411.898 385.211 412.65C384.46 413.388 384.395 414.739 385.071 415.549ZM316.348 434.568C316.262 434.664 316.175 434.764 316.137 434.887C315.976 435.419 316.779 435.701 317.293 435.525C317.807 435.348 318.388 435.008 318.84 435.315C319.492 435.756 320.406 434.841 320.168 434.078C319.929 433.315 318.983 432.986 318.228 433.19C317.472 433.393 316.878 433.979 316.348 434.568Z" fill="#00160A"/>
<path fill-rule="evenodd" clip-rule="evenodd" d="M224.931 333.247C224.056 333.487 222.982 333.393 222.444 332.645C222.024 332.063 222.055 331.254 222.259 330.561C222.56 329.542 223.237 328.604 224.192 328.188C225.147 327.771 226.377 327.975 227.03 328.803C227.63 329.563 227.639 330.707 227.177 331.563C226.716 332.418 225.852 332.994 224.931 333.247L224.931 333.247Z" fill="#FFB61D"/>
<path fill-rule="evenodd" clip-rule="evenodd" d="M221.466 326.369C221.272 326.871 220.887 327.337 220.37 327.437C219.512 327.604 218.802 326.733 218.483 325.899C218.177 325.1 218.03 324.238 218.052 323.38C218.058 323.126 218.125 322.813 218.365 322.75C219.301 322.506 220.357 322.842 220.995 323.586C221.632 324.33 221.821 325.448 221.466 326.369H221.466Z" fill="#FFB61D"/>
<path fill-rule="evenodd" clip-rule="evenodd" d="M366.81 450.335C366.249 450.596 365.385 450.675 365.207 450.069C367.208 448.84 369.209 447.612 371.21 446.383C370.165 448.106 368.613 449.5 366.81 450.335Z" fill="#E7EAEE"/>
<path fill-rule="evenodd" clip-rule="evenodd" d="M209.603 330.533C210.172 331.206 210.671 331.997 210.745 332.885C210.819 333.773 210.346 334.756 209.512 335.002C208.697 335.242 207.86 334.746 207.19 334.214C206.428 333.609 205.696 332.889 205.381 331.955C205.066 331.02 205.29 329.832 206.111 329.315C207.254 328.594 208.725 329.493 209.603 330.533H209.603Z" fill="#FFB61D"/>
<path fill-rule="evenodd" clip-rule="evenodd" d="M333.282 445.052C334.139 446.005 334.995 446.959 335.852 447.913C335.989 448.065 335.893 448.36 335.694 448.398C334.015 447.605 332.569 446.301 331.587 444.695C331.889 444.065 332.818 444.535 333.282 445.052L333.282 445.052Z" fill="#E7EAEE"/>
<path fill-rule="evenodd" clip-rule="evenodd" d="M87.1475 409.836C86.3398 408.886 85.58 407.787 85.5085 406.528C85.4623 405.716 85.7114 404.914 86.0528 404.179C87.4106 401.259 90.2633 399.222 93.3433 398.529C96.4232 397.835 99.6893 398.389 102.581 399.68C103.631 400.149 104.678 400.745 105.347 401.699C106.392 403.191 106.281 405.294 105.498 406.948C104.716 408.601 103.366 409.891 101.997 411.076C100.735 412.167 99.3699 413.236 97.7578 413.598C96.8904 413.793 95.9927 413.772 95.105 413.751C94.2153 413.73 93.3186 413.708 92.4503 413.507C90.3346 413.018 88.5738 411.512 87.1475 409.836ZM93.0104 404.247C92.2758 403.524 91.1111 402.778 90.3544 403.476C89.7062 404.074 89.2043 404.838 88.907 405.679C90.3831 405.732 91.8719 405.212 93.0104 404.247ZM95.1516 400.714C94.2552 400.935 93.3231 401.174 92.6188 401.785C93.1152 402.303 93.6883 402.792 94.3805 402.944C95.0726 403.097 95.9006 402.808 96.1708 402.136C96.4411 401.465 95.8399 400.544 95.1516 400.714M97.603 406.997C97.5351 407.55 97.4692 408.126 97.6462 408.652C97.8232 409.179 98.3214 409.637 98.8596 409.563C99.6313 409.457 99.9694 408.421 100.708 408.169C99.7613 407.575 98.6995 407.174 97.603 406.997ZM101.09 402.484C101.689 402.672 102.39 402.141 102.392 401.499C100.907 400.962 99.0823 401.798 98.4799 403.291C99.3914 403.483 100.389 403.163 101.032 402.473M95.8986 409.014C95.8258 408.828 95.7183 408.634 95.5346 408.566C94.9389 408.343 94.7861 409.48 94.2286 409.79C93.703 410.082 93.7782 410.999 94.3006 411.297C94.8229 411.596 95.5348 411.312 95.8452 410.788C96.1555 410.264 96.1214 409.584 95.8986 409.014M91.5151 407.606C90.9777 408.077 89.9976 407.862 89.625 408.479C89.2993 409.018 89.8309 409.772 90.4469 409.822C91.0628 409.873 91.6239 409.437 91.9917 408.927C92.1934 408.648 92.3636 408.302 92.2871 407.964C92.2105 407.625 91.7727 407.38 91.5151 407.606M102.651 405.597C102.849 405.392 103.048 405.187 103.246 404.982C102.731 404.471 101.901 404.59 101.2 404.744C100.984 404.792 100.752 404.848 100.604 405.016C100.258 405.407 100.672 406.088 101.181 406.161C101.691 406.235 102.172 405.931 102.601 405.641L102.651 405.597Z" fill="#00160A"/>
<path fill-rule="evenodd" clip-rule="evenodd" d="M363.478 291.094C361.415 289.175 359.353 287.257 357.29 285.338C356.618 284.713 356.053 283.378 356.912 283.079C357.803 284.802 359.79 285.625 361.678 285.85C363.566 286.075 365.487 285.84 367.369 286.108C369.152 286.363 370.842 287.059 372.535 287.686C381.874 291.147 391.811 292.639 401.202 295.948C401.753 296.142 402.383 296.433 402.501 297.018C402.632 297.673 402.033 298.229 401.463 298.551C398.535 300.204 394.577 299.641 392.198 297.234C391.05 296.074 389.169 296.882 387.618 297.329C384.76 298.152 381.721 297.447 378.833 296.74C375.778 295.992 372.722 295.244 369.666 294.497C368.601 294.236 367.525 293.971 366.546 293.467C365.398 292.876 364.43 291.979 363.478 291.094ZM397.919 297.848C398.405 297.623 397.852 296.909 397.35 296.726C392.415 294.918 387.403 293.151 382.187 292.638C379.481 292.371 376.81 291.741 374.263 290.768C370.848 289.463 367.382 287.506 363.79 288.134C364.1 290.137 365.984 291.52 367.89 292.061C369.795 292.601 371.813 292.534 373.754 292.918C376.19 293.399 378.437 294.577 380.803 295.342C383.169 296.107 385.854 296.428 388.048 295.239C389.603 294.398 391.524 294.926 393.1 295.725C394.675 296.524 396.179 297.594 397.919 297.848Z" fill="#00160A"/>
<path fill-rule="evenodd" clip-rule="evenodd" d="M523.677 319.808C525.233 318.542 526.788 317.276 528.344 316.01C528.79 315.647 529.272 315.269 529.839 315.218C530.673 315.143 531.388 315.785 531.981 316.391C534.024 318.482 535.965 320.679 537.792 322.971C538.237 323.529 537.677 324.324 537.153 324.804C535.427 326.385 533.702 327.966 531.976 329.546C531.539 329.946 531.071 330.362 530.495 330.468C529.601 330.632 528.768 330.009 528.062 329.422C526.566 328.18 525.07 326.937 523.574 325.695C522.677 324.949 521.702 324.05 521.669 322.866C521.633 321.589 522.701 320.602 523.677 319.808ZM531.502 320.005C531.055 319.493 530.533 318.943 529.863 318.91C529.342 318.885 528.866 319.185 528.427 319.474C527.643 319.99 526.859 320.505 526.075 321.021C525.768 321.224 525.447 321.44 525.274 321.77C524.833 322.613 525.558 323.579 526.228 324.244C527.211 325.22 528.194 326.196 529.176 327.171C529.478 327.471 529.837 327.792 530.255 327.75C530.55 327.721 530.795 327.513 531.015 327.31C531.856 326.533 532.627 325.677 533.315 324.756C533.802 324.104 534.24 323.14 533.706 322.529C532.971 321.687 532.237 320.846 531.502 320.005V320.005Z" fill="#FFB61D"/>
<path fill-rule="evenodd" clip-rule="evenodd" d="M423.706 234.587C429.837 246.729 427.995 261.307 425.999 274.829C437.565 280.853 447.542 290.055 454.609 301.216C456.806 304.686 458.79 308.892 457.529 312.823C455.999 317.591 450.548 319.572 445.738 320.487C433.692 322.779 421.178 322.445 409.264 319.516C404.767 318.41 399.635 317.045 395.833 319.748C379.065 331.671 355.837 332.709 337.634 323.257C319.432 313.805 306.661 294.581 303.683 273.871C303.115 269.917 299.677 267.184 296.617 264.711C286.142 256.246 277.114 245.901 270.066 234.288C267.121 229.435 264.452 223.491 266.544 218.192C268.962 212.071 276.404 210.054 282.836 209.781C297.127 209.174 311.572 213.263 323.538 221.303C331.769 210.795 343.684 203.391 356.573 200.776C369.461 198.161 383.225 200.354 394.734 206.856C400.451 210.086 405.578 214.308 410.471 218.739C415.585 223.369 420.569 228.373 423.706 234.587ZM433.867 304.607C431.319 308.622 426.048 309.599 421.38 309.727C407.202 310.116 393.298 306.118 379.651 302.154C370.134 299.39 360.573 296.61 351.585 292.373C346.129 289.801 340.921 286.709 335.78 283.524C317.404 272.141 298.654 258.053 291.863 237.158C290.537 233.077 293.212 228.445 296.996 226.593C300.78 224.74 305.275 225.153 309.279 226.432C311.357 227.095 313.449 227.991 315.62 227.832C317.791 227.673 320.064 225.996 319.997 223.763C319.926 221.414 317.522 219.97 315.41 219.059C303.463 213.905 290.319 210.971 277.484 212.814C274.767 213.204 271.88 213.919 270.067 216.032C266.783 219.858 268.699 225.837 271.082 230.311C281.114 249.142 296.724 264.398 314.177 276.222C331.63 288.047 350.956 296.64 370.456 304.399C394.067 313.794 419.246 322.183 444.301 318.402C446.806 318.023 449.361 317.499 451.506 316.118C453.652 314.737 455.33 312.325 455.218 309.729C455.142 307.975 454.287 306.367 453.402 304.866C446.597 293.31 436.697 283.696 425.078 277.359C424.513 279.563 423.948 281.768 423.382 283.973C426.919 286.343 430.548 288.806 432.933 292.384C435.317 295.962 436.172 300.975 433.867 304.607ZM422.362 275.388C423.021 274.75 423.283 273.802 423.5 272.899C425.825 263.194 425.984 252.949 423.96 243.172C420.241 244.095 416.521 245.018 412.801 245.94C411.032 246.379 409.242 246.821 407.421 246.816C405.211 246.811 403.058 246.15 400.875 245.793C395.994 244.995 391.012 245.723 386.121 246.451C384.23 246.733 382.359 245.899 380.685 244.952C368.928 238.299 361.277 225.404 349.144 219.503C347.851 218.874 346.496 218.317 345.405 217.366C343.189 215.431 342.377 212.14 340.033 210.371C341.848 217.965 347.635 223.87 353.742 228.547C359.848 233.224 366.589 237.171 371.74 242.932C374.379 245.884 378.388 247.097 382.256 247.637C386.124 248.176 390.09 248.179 393.839 249.295C396.692 250.145 399.469 251.643 402.436 251.486C405.193 251.341 407.664 249.787 410.29 248.913C414.132 247.634 418.271 247.825 422.305 248.03C423.12 248.071 424.159 248.307 424.278 249.135C424.421 250.128 423.11 250.583 422.132 250.596C417.388 250.656 412.125 249.523 408.283 252.379C405.312 254.588 401.244 254.426 397.691 253.49C394.138 252.553 390.737 250.94 387.091 250.519C384.502 250.221 381.864 250.536 379.292 250.105C372.113 248.901 367.151 242.398 361.544 237.642C357.235 233.987 352.27 231.227 347.895 227.656C343.521 224.086 339.619 219.407 338.654 213.757C338.404 212.294 336.242 212.709 335.016 213.498C332.01 215.429 328.97 217.39 326.527 220.027C324.084 222.664 322.261 226.095 322.237 229.734C322.202 234.794 326.068 239.589 330.918 240.503C335.025 241.276 334.968 249.177 339.138 249.364C341.819 249.484 343.215 252.567 344.415 255.03C345.614 257.493 348.357 260.068 350.619 258.588C352.092 257.624 353.965 258.703 355.498 259.561C357.031 260.419 359.367 260.839 360.169 259.247C357.011 258.694 355.303 254.2 357.262 251.599C358.739 249.638 361.407 249.152 363.82 249.089C366.65 249.015 369.604 249.361 371.995 250.915C374.386 252.469 376.047 255.48 375.369 258.3C374.582 261.573 375.181 265.172 376.983 267.99C378.439 267.03 379.895 266.07 381.351 265.11C383.305 263.821 385.33 262.504 387.622 262.12C389.914 261.736 392.562 262.535 393.685 264.621C394.808 266.71 394.11 269.293 393.388 271.562C397.238 270.084 401.804 270.765 405.085 273.307C409.404 276.654 415.265 277.802 420.482 276.324C421.161 276.132 421.851 275.884 422.362 275.388ZM401.225 214.76C400.491 214.33 399.565 213.917 398.844 214.37C396.272 215.984 392.973 215.653 390.069 214.825C387.164 213.996 384.33 212.718 381.318 212.589C379.051 212.492 376.801 213.054 374.533 213.055C369.142 213.057 364.279 209.948 359.752 206.946C359.171 206.56 358.561 206.142 358.271 205.497C357.981 204.852 358.182 203.924 358.841 203.708C363.455 208.822 370.513 211.496 377.259 210.686C379.111 210.463 380.956 209.995 382.817 210.129C385.468 210.32 387.875 211.708 390.403 212.55C392.931 213.391 396.013 213.57 397.947 211.7C382.616 199.687 360.08 198.383 343.529 208.55C343.273 208.707 342.979 208.971 343.083 209.258C344.767 213.902 349.499 216.422 353.57 219.087C362.792 225.124 370.123 233.721 378.691 240.699C381.305 242.828 384.528 244.914 387.76 244.062C392.384 242.844 397.274 242.7 401.959 243.643C404.019 244.058 406.067 244.682 408.166 244.645C412.484 244.569 416.485 241.708 420.794 242.008C422.048 242.095 423.053 240.769 423.115 239.481C423.177 238.193 422.566 236.98 421.936 235.865C417 227.126 409.775 219.763 401.225 214.76ZM333.099 304.955C336.944 307.345 342.061 305.644 346.267 307.271C348.308 308.06 350.115 309.626 352.291 309.776C354.204 309.909 356.067 308.905 357.979 309.055C359.796 309.198 361.362 310.347 362.914 311.326C369.081 315.218 376.543 316.903 383.731 316.025C385.622 315.795 387.35 317.022 389.162 317.621C390.974 318.22 393.565 317.696 393.816 315.759C383.483 312.743 373.523 308.535 363.589 304.337C343.025 295.647 322.148 286.77 304.796 272.495C305.825 275.955 306.853 279.415 307.881 282.874C309.162 287.183 310.45 291.51 312.326 295.583C319.752 311.704 335.901 322.264 352.809 326.377C360.279 328.195 368.253 328.892 375.547 326.433C370.689 326.02 367.137 321.596 362.614 319.73C357.947 317.804 352.203 318.584 348.288 315.342C343.531 311.402 335.217 312.743 332.145 307.319C331.571 306.305 332.121 304.347 333.099 304.955ZM322.674 252.285C322.719 254.801 324.105 257.249 326.212 258.536C327.217 259.149 328.39 259.532 329.187 260.409C330.132 261.449 330.341 263.121 329.681 264.372C328.573 266.475 325.764 266.802 323.455 266.484C322.185 266.309 320.907 266.009 319.803 265.342C318.337 264.457 317.298 263.008 316.141 261.729C313.644 258.968 310.438 256.888 306.937 255.758C307.208 258.498 309.374 260.586 311.439 262.347C320.426 270.006 330.226 276.605 340.241 282.777C343.512 284.793 346.81 286.766 350.213 288.536C362.685 295.023 376.34 298.672 389.874 302.275C394.767 303.578 399.659 304.88 404.552 306.183C405.227 306.363 405.948 306.542 406.612 306.319C407.328 306.079 407.823 305.424 408.27 304.802C411.467 300.35 414.512 295.783 417.397 291.111C417.535 290.886 417.68 290.633 417.635 290.371C417.574 290.019 417.212 289.826 416.892 289.685C411.635 287.364 406.378 285.044 401.12 282.723C400.176 282.306 399.192 281.881 398.165 281.917C396.939 281.959 395.837 282.646 394.68 283.064C387.478 285.666 380.054 277.714 372.545 279.138C370.071 279.607 367.89 281.063 365.507 281.894C363.124 282.724 360.141 282.765 358.462 280.842C357.489 279.729 357.162 278.193 356.591 276.818C356.02 275.442 354.959 274.052 353.503 273.991C352.789 273.961 352.106 274.262 351.404 274.4C348.638 274.946 345.998 272.934 344.239 270.675C342.48 268.416 341.122 265.743 338.834 264.057C336.229 262.137 332.725 261.74 330.302 259.583C327.847 257.397 326.925 253.765 324.368 251.705C323.924 251.348 323.219 251.072 322.856 251.515C322.687 251.722 322.669 252.015 322.674 252.285ZM390.488 272.451C389.97 270.749 391.907 269.154 391.749 267.378C391.555 265.19 388.601 264.659 386.538 265.248C384.558 265.815 382.706 266.849 381.168 268.249C379.395 269.862 376.992 272.102 375.097 270.643C374.599 270.259 374.286 269.678 374.016 269.103C372.302 265.45 371.74 261.24 372.434 257.249C372.779 255.266 371.29 253.336 369.486 252.542C367.683 251.747 365.645 251.818 363.684 251.902C362.44 251.955 361.091 252.05 360.153 252.89C359.214 253.729 359.125 255.599 360.273 256.094C361.941 256.814 362.873 258.963 362.277 260.717C360.34 262.688 357.2 262.406 354.504 261.987C352.415 261.663 350.326 261.338 348.237 261.014C346.713 260.777 345.1 260.5 343.935 259.463C341.659 257.437 341.688 253.064 338.828 252.09C338.06 251.828 337.216 251.891 336.443 251.645C332.575 250.413 333.199 243.018 329.208 242.313C322.882 241.195 318.371 233.79 320.164 227.465C314.301 235.257 309.716 244.059 306.659 253.391C310.742 254.225 314.564 256.354 317.471 259.412C318.927 260.944 320.226 262.754 322.13 263.626C324.035 264.498 326.804 263.873 327.326 261.802C324.925 261.542 322.948 259.694 321.631 257.616C320.727 256.191 320.032 254.548 320.098 252.849C320.164 251.15 321.144 249.412 322.718 248.883C324.813 248.178 327.013 249.771 328.266 251.633C329.519 253.494 330.28 255.72 331.835 257.324C333.407 258.945 335.592 259.731 337.581 260.762C340.594 262.322 343.281 264.542 345.41 267.229C346.891 269.099 348.36 271.363 350.676 271.766C352.796 272.136 355.156 270.8 357.029 271.884C359.814 273.498 358.903 278.95 361.967 279.889C363.315 280.302 364.698 279.518 365.962 278.885C371.86 275.937 379.109 276.016 384.944 279.093C386.488 279.907 388.001 280.937 389.729 281.106C392.517 281.377 395.041 279.35 397.827 279.058C401.042 278.722 403.989 280.697 406.82 282.296C409.968 284.075 413.319 285.475 416.782 286.459C417.39 286.632 418.045 286.79 418.64 286.575C419.372 286.309 419.811 285.555 420.138 284.833C421.035 282.855 421.553 280.697 421.654 278.518C415.677 279.505 408.801 280.246 404.27 276.125C402.062 274.117 398.966 273.181 396.05 273.64C393.989 273.965 391.11 274.494 390.488 272.451M297.532 242.802C299.403 245.925 301.273 249.049 303.143 252.172C303.372 252.554 303.761 252.993 304.161 252.813C304.396 252.707 304.499 252.428 304.579 252.178C306.938 244.816 310.267 237.782 314.448 231.328C314.742 230.874 314.143 230.373 313.649 230.171C312.185 229.573 310.716 228.973 309.198 228.536C306.23 227.683 303.088 227.47 300.036 227.914C297.904 228.224 295.567 229.061 294.667 231.068C294.254 231.991 294.209 233.044 294.275 234.057C294.374 235.561 294.703 237.048 295.247 238.447C295.844 239.981 296.69 241.396 297.532 242.802ZM430.8 305.055C432.986 303.795 433.684 300.743 433.009 298.265C432.334 295.787 430.604 293.773 428.847 291.937C426.918 289.921 424.891 288.003 422.778 286.193C419.27 293.121 415.271 299.787 410.825 306.122C410.541 306.525 410.789 307.134 411.205 307.391C411.62 307.648 412.134 307.649 412.619 307.638C417.905 307.526 423.182 306.927 428.364 305.851C429.203 305.677 430.054 305.485 430.8 305.055ZM341.832 309.649C344.96 309.916 347.413 312.403 350.236 313.812C355.508 316.442 362.21 315.333 367.007 318.792C368.483 319.856 369.688 321.304 371.255 322.223C372.951 323.218 374.942 323.519 376.886 323.714C380.824 324.109 385.346 323.908 387.951 320.852C388.099 320.679 388.241 320.492 388.304 320.272C388.625 319.156 386.986 318.66 385.855 318.725C376.861 319.245 367.374 317.828 360.099 312.377C358.193 310.949 355.569 312.365 353.209 312.417C350.776 312.471 348.595 311.024 346.355 310.046C343.236 308.683 339.758 308.195 336.397 308.647C337.697 310.063 339.942 309.487 341.832 309.649Z" fill="#00160A"/>
<path fill-rule="evenodd" clip-rule="evenodd" d="M206.798 292.751C205.606 291.769 205.147 290.156 204.444 288.764C202.079 284.079 196.627 281.738 191.485 281.703C186.343 281.668 181.391 283.529 176.571 285.365C168.888 288.291 161.205 291.217 153.522 294.143C146.362 296.87 138.497 300.248 135.372 307.4C132.4 314.201 134.755 322.081 137.132 329.124C142.857 346.089 148.582 363.054 154.307 380.019C155.036 382.179 156.378 384.776 158.597 384.579C175.452 383.087 192.354 396.191 195.56 413.236C206.181 410.851 216.442 406.782 225.866 401.218C228.454 399.69 231.067 397.963 232.661 395.371C235.572 390.636 234.332 384.491 232.995 379.063C230.538 369.089 228.081 359.115 225.624 349.141C218.949 348.904 212.09 348.034 206.26 344.689C195.764 338.668 190.602 324.434 194.584 312.791C198.567 301.148 211.152 293.362 223.064 295.048C234.976 296.734 244.998 307.618 246.098 319.906C247.198 332.193 239.366 344.705 228.064 348.918C230.109 356.776 232.154 364.633 234.199 372.491C235.657 378.095 237.127 383.8 236.929 389.596C236.616 398.734 232.219 407.143 227.711 415.029C214.185 438.695 197.158 462.41 172.147 472.109C162.977 475.665 153.167 477.135 143.4 478.004C138.302 478.457 133.129 478.75 128.099 477.782C122.382 476.681 117.076 473.993 112.027 471.029C72.6586 447.92 44.7921 405.258 38.9206 359.109C38.3021 354.248 37.9068 349.321 36.5323 344.625C35.2818 340.353 33.2421 336.352 32.0817 332.053C29.6032 322.871 31.4829 312.559 37.028 304.918C39.9838 300.844 40.5683 295.521 42.1872 290.722C43.7365 286.129 46.3079 281.903 49.6489 278.458C53.3114 274.682 57.8211 271.891 62.4259 269.429C86.0663 256.793 113.629 252.033 139.998 256.032C166.366 260.032 191.408 272.77 210.476 291.883C210.267 293.437 207.99 293.732 206.798 292.751ZM171.422 403.179C169.61 400.941 167.833 398.584 166.935 395.824C166.037 393.063 166.156 389.795 167.909 387.507C166.999 386.498 165.39 386.249 164.231 386.938C163.073 387.627 162.483 389.185 162.885 390.495C163.63 392.926 162.051 395.832 159.645 396.46C161.093 393.528 161.567 390.1 160.968 386.87C160.925 386.639 160.864 386.387 160.678 386.25C160.284 385.958 159.771 386.409 159.521 386.837C158.031 389.389 158.107 392.653 159.041 395.47C159.974 398.287 161.674 400.758 163.352 403.185C167.566 401.776 172.649 404.682 173.701 409.101C174.611 412.929 178.336 415.563 182.145 416.069C185.954 416.575 189.79 415.314 193.237 413.578C187.072 412.726 180.571 411.732 175.715 407.741C174.105 406.417 172.741 404.808 171.422 403.179ZM45.0728 328.308C41.9201 320.838 40.2847 312.777 39.3599 304.692C34.2989 312.136 32.3064 321.705 33.9607 330.621C35.615 339.538 40.8944 347.686 48.267 352.701C50.5841 354.277 50.9985 357.508 51.5171 360.311C52.7758 367.113 55.86 373.392 58.9092 379.568C64.8011 391.503 70.7656 403.551 79.1141 413.827C84.2613 420.162 91.34 426.156 99.3423 425.378C107.985 424.538 114.223 415.711 115.349 406.878C116.475 398.044 113.718 389.229 110.998 380.769C108.022 371.511 105.045 362.252 102.068 352.994C101.713 351.889 101.408 350.525 102.193 349.686C107.037 344.502 108.344 336.651 107.247 329.558C106.15 322.465 102.961 315.919 99.7792 309.522C98.6597 309.906 98.7067 311.518 98.8782 312.716C100.161 321.685 95.5847 330.92 88.4716 336.295C81.3586 341.67 72.099 343.486 63.3038 342.644C59.9704 342.325 56.5942 341.618 53.7272 339.844C49.6103 337.296 46.9835 332.835 45.0728 328.308ZM138.49 440.657C134.757 437.961 131.814 434.278 129.105 430.508C124.749 424.446 120.865 418.028 117.5 411.335C115.8 416.278 112.755 420.726 108.801 424.044C104.271 427.846 97.6061 428.06 92.1474 425.895C86.6886 423.731 82.2361 419.539 78.2826 415.111C64.131 399.262 54.7342 379.369 49.1237 358.659C48.5507 356.544 47.9147 354.258 46.2135 352.927C44.5122 351.596 41.4181 352.06 40.9828 354.209C40.8897 354.67 40.9278 355.146 40.9664 355.614C41.6329 363.704 42.3102 371.855 44.5059 379.655C45.5626 383.408 46.963 387.05 48.3927 390.671C53.6375 403.955 59.3818 417.196 67.7682 428.658C78.8638 443.824 94.0612 455.194 109.022 466.328C114.608 470.485 121.287 474.864 127.918 472.903C130.615 472.105 132.925 470.321 135.034 468.42C142.282 461.888 147.945 453.519 151.379 444.268C146.868 444.993 142.224 443.353 138.49 440.657ZM104.288 281.49C97.8888 276.529 90.8872 272.154 83.1237 270.088C75.3603 268.022 66.7186 268.467 59.8185 272.663C57.4438 274.107 55.3215 275.957 53.3882 277.979C46.8277 284.839 42.3313 294.058 42.1906 303.668C42.1162 308.747 43.2299 313.761 44.5024 318.669C45.7287 323.399 47.1474 328.172 49.8346 332.216C52.5218 336.26 56.688 339.529 61.4383 339.97C68.8919 340.663 76.6527 339.712 83.2421 336.07C89.8316 332.429 95.0921 325.852 96.1618 318.251C96.9433 312.697 95.5177 307.075 95.5383 301.465C95.5484 298.74 95.902 296.017 96.5878 293.384C97.2102 290.995 98.1482 288.613 99.8431 286.855C101.538 285.097 104.119 284.078 106.423 284.804C106.541 283.424 105.366 282.325 104.288 281.49ZM205.746 412.339C197.662 414.908 189.579 417.476 181.495 420.045C175.939 421.81 170.298 423.59 164.483 423.758C158.669 423.926 152.557 422.279 148.457 418.046C150.679 423.574 154.514 428.407 159.338 431.762C160.564 432.614 160.084 434.548 159.472 435.932C156.002 443.781 152.503 451.681 147.679 458.737C142.855 465.793 136.573 472.032 128.843 475.403C130.672 476.188 132.62 476.68 134.595 476.855C137.405 477.104 140.227 476.714 143.021 476.326C155.277 474.622 167.812 472.829 178.787 466.977C188.47 461.813 196.365 453.788 204.094 445.883C210.442 439.389 217.058 432.415 219.155 423.473C221.209 414.717 230.826 409.062 231.739 400.105C224.338 406.374 214.914 409.426 205.746 412.339ZM108.547 322.363C110.696 328.852 111.303 336.12 108.861 342.499C107.466 346.147 105.085 349.565 105.03 353.482C105.004 355.315 105.5 357.109 106.031 358.859C110.585 373.865 118.113 388.347 118.304 404.062C118.35 407.774 120.097 411.219 121.926 414.421C125.428 420.556 129.391 426.413 133.768 431.924C137.328 436.407 141.506 440.878 146.989 442.215C148.394 442.558 149.918 442.67 151.246 442.086C153.644 441.029 154.635 438.148 155.368 435.577C155.736 434.288 156.036 432.7 155.097 431.764C148.259 424.948 143.196 416.275 140.564 406.874C139.857 404.347 139.308 401.735 138.069 399.434C137.331 398.063 136.364 396.837 135.554 395.509C133.517 392.17 132.522 388.291 131.496 384.494C127.609 370.113 122.882 355.972 117.348 342.17C115.711 338.089 115.198 333.641 114.701 329.257C114.535 327.789 114.368 326.32 114.202 324.852C113.517 318.814 112.87 312.467 115.131 306.847C117.129 301.88 115.151 296.155 112.362 291.606C110.812 289.077 108.522 286.463 105.615 286.625C102.572 286.794 100.554 289.902 99.4182 292.803C97.9836 296.468 97.2029 300.861 99.2522 304.203C102.809 310.005 106.397 315.873 108.547 322.363ZM106.217 280.278C111.368 284.691 115.863 290.219 117.807 296.81C118.235 298.263 119.5 300.17 120.691 299.271C127.024 294.494 134.453 291.532 141.784 288.624C144.919 287.381 148.055 286.137 151.19 284.893C161.526 280.794 172.006 276.657 183.021 275.416C176.409 269.695 168.424 265.863 160.232 263.017C139.135 255.689 116.011 254.626 94.3598 259.989C92.2941 260.501 90.2386 261.07 88.2437 261.822C83.8959 263.459 79.8152 265.964 75.2564 266.802C86.5657 268.044 97.4862 272.797 106.217 280.278ZM126.385 346.507C129.347 347.861 133.651 343.841 135.585 346.512C132.077 348.039 128.44 349.254 124.728 350.138C123.967 350.32 123.968 351.426 124.16 352.203C125.623 358.132 127.734 363.893 130.44 369.343C133.282 367.626 137.104 368.625 139.571 370.872C142.037 373.12 143.412 376.349 144.516 379.539C145.466 382.283 146.27 385.081 146.925 387.915C147.954 392.368 148.153 398.041 144.369 400.462C142.988 401.345 143.606 403.513 144.38 404.981C146.197 408.431 148.057 411.922 150.706 414.748C157.74 422.249 170.24 423.463 178.52 417.449C171.816 415.834 165.739 411.621 161.776 405.843C159.041 401.855 157.328 397.24 155.666 392.671C148.417 372.756 141.587 352.68 135.181 332.462C133.631 327.568 132.094 322.607 131.738 317.473C131.382 312.339 132.314 306.94 135.301 302.806C139.037 297.635 145.293 295.207 151.199 293.037C164.416 288.182 177.632 283.327 190.848 278.472C183.733 275.509 175.692 278.054 168.427 280.608C154.529 285.493 140.591 290.395 127.374 296.978C125.012 298.154 122.637 299.411 120.741 301.276C115.001 306.922 115.177 316.359 116.887 324.327C116.977 324.746 117.104 325.213 117.469 325.422C117.774 325.597 118.149 325.535 118.491 325.468C121.332 324.914 124.172 324.36 127.012 323.805C129.798 323.262 131.962 326.242 133.056 328.927C134.608 332.735 135.578 336.79 135.921 340.902C135.995 341.78 136.003 342.771 135.411 343.41C134.82 344.049 133.456 343.792 133.474 342.911C133.527 340.309 133.293 337.701 132.778 335.152C132.183 332.207 131.103 329.179 128.805 327.311C126.507 325.444 122.72 325.272 120.896 327.626C125.627 332.455 127.765 339.807 126.385 346.507ZM230.746 339.969C231.007 336.054 233.811 332.449 237.473 331.319C239.673 330.64 241.205 328.472 241.751 326.182C242.297 323.891 242.011 321.483 241.588 319.165C240.24 311.766 237.122 304.129 230.847 300.229C224.043 296.001 215.273 297.213 207.774 299.937C204.506 301.124 201.109 302.762 199.392 305.853C198.336 307.754 198.046 309.988 197.776 312.159C197.224 316.598 196.671 321.079 197.07 325.535C197.469 329.991 198.904 334.482 201.867 337.765C203.93 340.051 207.092 341.719 209.98 340.753C212.242 339.996 214.318 342.154 216.461 343.217C219.385 344.669 222.838 344.068 226.028 343.436C228.08 343.029 230.604 342.109 230.746 339.969ZM143.788 387.351C143.254 385.573 142.72 383.795 142.187 382.017C141.056 378.251 139.804 374.286 136.926 371.677C135.777 370.635 134.039 369.856 132.758 370.721C131.457 371.599 131.489 373.539 131.722 375.118C132.646 381.364 134.437 387.475 137.024 393.208C137.893 395.136 138.885 397.065 140.421 398.488C140.802 398.841 141.236 399.17 141.743 399.255C142.823 399.438 143.77 398.467 144.256 397.46C145.751 394.358 144.781 390.659 143.788 387.351ZM189.781 406.055C184.784 405.409 180.107 402.485 177.257 398.224C176.189 396.628 175.36 394.824 175.133 392.902C174.999 391.766 175.068 390.571 174.596 389.535C174.124 388.499 172.815 387.733 171.882 388.359C171.864 391.476 171.898 394.791 173.538 397.415C174.102 398.319 174.835 399.097 175.563 399.868C177.847 402.286 180.159 404.713 182.87 406.609C185.582 408.505 188.753 409.857 192.034 409.869C191.869 408.266 191.339 406.256 189.781 406.055ZM169.695 387.473C168.622 388.439 168.427 390.07 168.486 391.533C168.685 396.487 171.01 401.234 174.485 404.678C177.96 408.122 182.517 410.306 187.256 411.271C188.418 411.508 189.671 411.664 190.747 411.158C187.544 410.714 184.446 409.486 181.784 407.604C180.774 406.89 179.828 406.085 178.888 405.277C176.402 403.141 173.904 400.929 172.168 398.119C170.23 394.981 169.345 391.171 169.695 387.473ZM123.896 343.197C123.754 338.366 122.032 333.598 119.072 329.838C117.491 331.343 117.825 333.949 118.284 336.111C118.941 339.204 119.695 342.484 121.899 344.7C122.132 344.934 122.402 345.164 122.726 345.196C123.584 345.279 123.923 344.081 123.896 343.197ZM179.142 398.336C181.582 401.472 185.111 403.695 188.94 404.51C189.174 404.559 189.452 404.591 189.619 404.416C189.749 404.28 189.759 404.066 189.739 403.877C189.602 402.621 188.493 401.695 187.342 401.248C186.19 400.801 184.937 400.69 183.778 400.262C180.97 399.227 178.988 396.199 179.115 393.141C179.171 391.805 178.172 390.506 176.893 390.251C176.147 393.059 177.372 396.063 179.142 398.336ZM169.253 405.395C167.87 404.758 166.275 404.801 164.846 404.279C164.301 404.08 163.779 404.837 163.986 405.391C164.194 405.946 164.824 406.213 165.403 406.238C165.981 406.262 166.554 406.107 167.133 406.105C169.205 406.094 170.956 408.413 170.429 410.469C170.226 411.259 171.083 412.103 171.844 411.864C172.748 409.466 171.54 406.447 169.253 405.395ZM184.72 396.569C183.503 395.338 182.276 394.097 180.847 393.135C180.475 396.472 183.543 399.748 186.807 399.499C187.107 399.177 186.787 398.662 186.478 398.349C185.892 397.756 185.306 397.163 184.72 396.569ZM167.735 408.88C168.051 409.372 169.024 409.105 168.912 408.527C168.212 407.709 167.171 407.209 166.11 407.181C166.252 407.992 166.887 408.69 167.666 408.893M157.614 387.266C157.582 386.855 157.114 386.547 156.737 386.688C156.551 387.283 156.699 387.975 157.11 388.435C157.639 388.441 157.991 387.68 157.652 387.264M145.385 412.78C145.385 413.393 145.718 413.995 146.231 414.308C146.54 413.697 146.036 412.835 145.365 412.828" fill="#00160A"/>
<path fill-rule="evenodd" clip-rule="evenodd" d="M517.552 339.394C517.142 338.349 515.41 338.834 515.081 339.908C514.751 340.983 515.282 342.111 515.732 343.138C520.305 353.571 516.665 367.093 507.522 373.639C505.192 372.177 504.252 368.947 501.792 367.73C500.657 367.169 499.355 367.123 498.096 367.088C494.355 366.983 490.613 366.878 486.872 366.773C485.506 366.734 483.863 366.849 483.2 368.075C481.755 370.745 477.892 371.811 475.553 369.922C473.214 368.033 473.614 363.517 476.385 362.402C477.039 362.138 477.782 362.045 478.322 361.584C478.807 361.169 479.041 360.531 479.255 359.922C480.707 355.796 482.159 351.67 483.611 347.544C483.884 346.767 484.162 345.967 484.142 345.14C484.103 343.456 482.863 342.072 481.591 341.006C480.319 339.941 478.884 338.953 478.167 337.437C477.45 335.922 477.87 333.679 479.442 333.193C487.687 330.641 496.956 329.022 504.633 333.028C505.947 333.713 507.257 334.574 508.731 334.617C510.204 334.659 511.834 333.422 511.565 331.935C511.187 329.842 507.605 328.96 508.242 326.935C508.38 326.498 508.709 326.158 509.027 325.835C512.284 322.532 515.54 319.23 518.797 315.928C519.134 314.054 516.479 313.03 514.769 313.772C513.059 314.514 511.827 316.148 510.11 316.872C506.636 318.335 502.916 315.629 500.166 313.005C490.324 303.615 481.594 292.997 474.232 281.46C473.894 280.93 473.546 280.348 473.59 279.717C473.647 278.906 474.321 278.307 474.943 277.803C480.357 273.415 485.772 269.027 491.187 264.64C492.495 263.58 494.542 262.568 495.619 263.873C505.59 275.957 515.561 288.04 525.532 300.124C526.007 300.7 526.499 301.31 526.647 302.05C526.95 303.57 525.714 304.945 524.463 305.816C523.211 306.688 521.744 307.473 521.171 308.909C520.598 310.346 521.848 312.463 523.247 311.874C530.412 306.593 537.902 301.167 546.591 299.6C548.235 299.304 550.022 299.173 551.485 299.998C554.741 301.833 554.283 306.753 553.045 310.347C550.787 316.904 547.439 323.065 543.19 328.483C542.344 329.562 541.404 330.86 541.761 332.195C542.266 334.084 544.822 334.316 546.651 333.756C548.48 333.197 550.484 332.253 552.186 333.139C552.939 333.53 553.489 334.227 554.015 334.904C562.916 346.339 571.816 357.775 580.716 369.21C574.567 374.172 568.307 378.99 561.944 383.66C561.316 384.121 560.614 384.602 559.844 384.537C558.932 384.459 558.265 383.654 557.705 382.911C549.17 371.58 540.634 360.249 532.099 348.918C531.007 347.469 532.035 345.301 533.441 344.172C534.847 343.043 536.634 342.364 537.718 340.908C538.803 339.453 538.515 336.738 536.749 336.463C535.746 336.307 534.823 337.023 534.098 337.752C532.072 339.789 530.396 342.34 527.822 343.564C524.086 345.341 519.092 343.313 517.552 339.394ZM508.991 369.99C514.199 363.828 517.466 355.239 515.19 347.424C513.284 340.882 507.669 335.872 501.314 333.847C494.959 331.822 487.993 332.523 481.708 334.768C481.143 334.97 480.483 335.315 480.461 335.929C480.447 336.307 480.694 336.636 480.928 336.928C489.738 347.936 498.549 358.943 507.36 369.95C507.577 370.222 507.84 370.517 508.182 370.518C508.512 370.52 508.774 370.246 508.991 369.99ZM549.79 309.237C546.454 308.926 543.798 305.287 544.446 301.915C531.636 307.808 520.126 316.653 511.009 327.607C514.555 332.489 518.535 337.039 522.881 341.183C523.33 341.61 523.828 342.055 524.437 342.117C525.098 342.184 525.709 341.783 526.253 341.392C536.694 333.89 545.083 323.412 550.23 311.445C550.578 310.636 550.648 309.317 549.79 309.237ZM502.914 299.331C503.63 298.726 504.415 297.969 504.353 297.019C504.307 296.318 503.805 295.75 503.33 295.245C501.213 292.989 499.096 290.733 496.979 288.477C496.377 287.836 495.383 287.732 494.552 287.988C493.721 288.245 493.014 288.8 492.327 289.344C491.796 289.765 491.246 290.606 491.776 291.029C494.637 293.314 497.205 295.985 499.394 298.95C499.793 299.491 500.241 300.083 500.891 300.207C501.635 300.35 502.329 299.825 502.914 299.331ZM510.572 312.745C511.417 312.923 512.217 312.336 512.891 311.783C513.467 311.31 514.097 310.721 514.068 309.966C514.048 309.454 513.723 309.016 513.411 308.615C511.277 305.87 509.142 303.124 507.007 300.379C506.86 300.189 506.693 299.986 506.461 299.936C506.229 299.886 505.996 300.003 505.789 300.122C504.932 300.613 504.124 301.194 503.382 301.854C503.08 302.122 502.774 302.431 502.699 302.834C502.613 303.303 502.864 303.76 503.112 304.164C504.841 306.975 506.905 309.569 509.243 311.87C509.628 312.249 510.049 312.635 510.572 312.745ZM480.862 361.35C480.812 361.481 480.762 361.616 480.764 361.757C480.771 362.158 481.219 362.427 481.608 362.386C481.997 362.345 482.329 362.091 482.639 361.846C485.396 359.673 488.153 357.499 490.91 355.325C491.341 354.986 491.813 354.564 491.811 354.006C491.809 353.571 491.512 353.204 491.231 352.878C490.02 351.469 488.808 350.061 487.597 348.652C487.407 348.432 487.203 348.202 486.93 348.115C486.182 347.879 485.605 348.788 485.322 349.537C483.835 353.474 482.349 357.412 480.862 361.35ZM494.782 357.789C494.616 357.589 494.44 357.382 494.202 357.286C493.86 357.148 493.475 357.271 493.131 357.402C489.428 358.813 486.107 361.262 483.622 364.411C484.188 364.732 484.868 364.727 485.514 364.714C489.907 364.627 494.3 364.539 498.693 364.452C499.175 364.442 499.842 364.203 499.719 363.725C498.073 361.746 496.428 359.767 494.782 357.789ZM483.053 275.131C482.755 275.436 482.436 275.788 482.431 276.22C482.427 276.512 482.569 276.782 482.707 277.037C484.246 279.878 485.785 282.72 487.324 285.561C487.657 286.175 488.004 286.806 488.547 287.233C489.089 287.66 489.885 287.83 490.459 287.448C491.258 286.917 492.056 286.386 492.854 285.855C493.443 285.463 494.067 284.578 493.497 284.157C490.198 281.721 487.511 278.421 485.76 274.656C485.527 274.156 484.869 274 484.354 274.167C483.839 274.335 483.436 274.739 483.053 275.131ZM497.587 303.817C498.249 303.145 498.281 302.018 497.914 301.14C497.547 300.261 496.861 299.572 496.191 298.908C494.361 297.095 492.53 295.281 490.7 293.467C490.19 292.961 489.662 292.443 489.002 292.177C488.342 291.911 487.509 291.957 487.019 292.483C486.106 293.46 486.958 295.043 487.807 296.078C489.454 298.084 491.1 300.089 492.746 302.095C493.369 302.853 494.017 303.632 494.883 304.07C495.75 304.509 496.901 304.515 497.587 303.817ZM500.918 279.883C502.193 279.861 503.01 278.306 502.796 277.015C502.582 275.725 501.681 274.685 500.819 273.721C499.045 271.74 497.271 269.759 495.498 267.778C494.918 267.131 494.15 266.422 493.323 266.652C492.595 266.853 492.224 267.746 492.325 268.512C492.426 269.279 492.874 269.944 493.309 270.576C495.012 273.049 496.714 275.522 498.416 277.995C499.039 278.9 499.838 279.901 500.918 279.883ZM534.735 347.716C534.687 348.018 534.859 348.306 535.024 348.561C536.704 351.162 538.385 353.763 540.066 356.364C540.567 357.14 541.542 357.561 542.434 357.386C543.325 357.211 544.08 356.451 544.267 355.54C544.536 354.225 543.712 352.964 542.931 351.886C541.528 349.949 540.125 348.013 538.722 346.076C538.285 345.473 537.393 345.394 536.721 345.693C536.049 345.991 535.545 346.576 535.065 347.143C534.921 347.312 534.771 347.494 534.735 347.716ZM548.677 353.323C549.164 352.981 549.678 352.605 549.893 352.041C550.255 351.086 549.625 350.063 549.025 349.244C547.612 347.315 546.185 345.396 544.746 343.488C544.157 342.706 543.484 341.873 542.54 341.68C541.708 341.51 540.792 341.943 540.378 342.703C539.963 343.462 540.081 344.489 540.657 345.129C542.867 347.584 544.704 350.393 546.079 353.423C546.499 354.347 547.857 353.899 548.677 353.323ZM476.645 280.774C476.807 281.553 477.325 282.195 477.827 282.804C479.85 285.257 481.874 287.711 483.898 290.165C484.055 290.356 484.215 290.55 484.418 290.689C484.904 291.024 485.612 290.97 486.044 290.563C486.476 290.157 486.591 289.438 486.308 288.911C484.548 285.639 482.789 282.367 481.029 279.095C480.487 278.087 479.183 277.591 478.131 277.994C477.08 278.396 476.411 279.647 476.645 280.774ZM558.393 368.547C558.097 368.884 557.783 369.268 557.793 369.722C557.802 370.109 558.048 370.442 558.282 370.745C559.927 372.872 561.579 374.993 563.239 377.109C563.515 377.459 563.805 377.822 564.204 378.01C565.174 378.465 566.25 377.721 567.068 377.019C567.429 376.71 567.825 376.32 567.78 375.84C567.754 375.556 567.575 375.316 567.404 375.093C565.49 372.598 563.576 370.103 561.662 367.608C561.26 367.085 560.477 367.022 559.879 367.282C559.282 367.543 558.828 368.052 558.393 368.547ZM488.578 274.088C489.815 277.537 492.087 280.755 495.346 282.279C496.148 282.654 497.31 282.805 497.719 282.004C498.132 281.195 497.35 280.318 496.701 279.695C494.117 277.216 492.578 273.83 491.1 270.533C490.638 269.501 488.958 269.789 488.433 270.789C487.908 271.789 488.195 273.022 488.578 274.088ZM553.473 357.341C552.945 356.6 552.389 355.836 551.598 355.408C550.807 354.98 549.71 355 549.136 355.704C548.225 356.824 549.221 358.463 550.144 359.573C551.93 361.719 553.555 364.005 555.001 366.406C555.561 367.337 556.957 366.712 557.779 366.014C558.208 365.65 558.683 365.158 558.556 364.602C558.51 364.4 558.388 364.226 558.269 364.059C556.67 361.819 555.071 359.58 553.473 357.341ZM549.117 336.643C549.052 337.467 549.511 338.227 549.952 338.919C551.791 341.803 553.642 344.704 555.934 347.224C557.305 347.134 558.091 345.414 557.812 344.035C557.532 342.655 556.554 341.557 555.676 340.474C554.502 339.025 553.446 337.476 552.521 335.849C552.131 335.164 551.288 334.789 550.535 334.964C549.782 335.14 549.179 335.853 549.117 336.643ZM551.285 370.044C551.885 370.468 552.772 370.391 553.294 369.87C553.861 369.306 553.938 368.371 553.692 367.601C553.445 366.831 552.932 366.186 552.429 365.561C550.974 363.754 549.52 361.946 548.066 360.138C547.523 359.464 546.945 358.762 546.151 358.446C545.356 358.13 544.286 358.36 543.946 359.163C543.588 360.009 544.175 360.939 544.732 361.664C546.695 364.223 548.659 366.781 550.623 369.34C550.821 369.597 551.022 369.858 551.285 370.044ZM568.392 357.435C568.287 357.015 568 356.672 567.721 356.346C565.666 353.937 563.61 351.529 561.555 349.121C561.389 348.926 561.21 348.723 560.969 348.65C560.73 348.578 560.475 348.647 560.236 348.715C559.656 348.881 559.046 349.065 558.627 349.509C558.209 349.954 558.081 350.749 558.522 351.17C560.193 352.759 561.687 354.544 562.965 356.479C563.709 357.605 564.472 358.86 565.721 359.316C566.97 359.772 568.723 358.752 568.392 357.435ZM509.644 297.174C509.097 297.927 509.457 298.999 509.903 299.819C511.237 302.277 513.167 304.328 515.073 306.349C515.563 306.868 516.076 307.403 516.736 307.653C517.397 307.904 518.249 307.778 518.635 307.174C519.166 306.343 518.559 305.264 517.972 304.474C516.49 302.483 515.008 300.493 513.527 298.502C513.043 297.853 512.534 297.18 511.819 296.82C511.103 296.46 510.12 296.519 509.644 297.174ZM573.022 369.6C573.674 370.424 574.66 371.338 575.599 370.892C576.416 370.503 576.745 369.207 577.645 369.203C576.065 367.114 574.485 365.025 572.904 362.936C572.268 362.094 571.583 361.215 570.615 360.83C569.647 360.445 568.323 360.791 568 361.803C567.701 362.737 568.343 363.688 568.947 364.452C570.306 366.168 571.664 367.884 573.022 369.6ZM513.819 290.825C512.231 288.274 510.439 285.856 508.469 283.602C507.95 283.01 507.42 282.429 506.889 281.847C506.455 281.372 505.989 280.876 505.378 280.701C504.644 280.491 503.793 280.844 503.406 281.518C503.02 282.192 503.133 283.127 503.669 283.683C505.761 285.855 507.852 288.028 509.944 290.2C510.493 290.771 511.075 291.362 511.822 291.596C512.569 291.83 513.527 291.569 513.819 290.825ZM523.556 302.945C523.749 302.788 523.958 302.604 523.984 302.353C524.01 302.087 523.824 301.855 523.649 301.657C521.377 299.091 519.104 296.524 516.832 293.957C516.381 293.448 515.8 292.891 515.143 293.028C514.506 293.161 514.159 293.933 514.246 294.594C514.332 295.255 514.73 295.822 515.116 296.359C516.057 297.671 516.998 298.982 517.94 300.293C519.045 301.833 520.201 303.42 521.833 304.345C522.407 303.878 522.982 303.412 523.556 302.945ZM557.19 353.266C556.637 352.643 555.905 351.959 555.11 352.172C554.395 352.364 554.035 353.249 554.15 353.998C554.264 354.748 554.723 355.387 555.168 355.993C556.446 357.736 557.725 359.478 559.004 361.221C559.67 362.129 560.608 363.144 561.683 362.872C562.634 362.63 563.085 361.419 562.87 360.438C562.655 359.457 561.972 358.666 561.313 357.922C559.938 356.37 558.564 354.818 557.19 353.266ZM553.732 372.482C553.114 373.479 553.814 374.763 554.517 375.699C555.617 377.163 556.774 378.582 557.984 379.952C558.463 380.494 558.99 381.053 559.682 381.23C560.433 381.423 561.286 381.076 561.704 380.408C562.123 379.739 562.076 378.799 561.592 378.178C560.462 376.726 559.331 375.274 558.201 373.822C557.63 373.088 557.027 372.329 556.192 371.945C555.358 371.561 554.222 371.69 553.732 372.482ZM498.595 284.851C498.074 285.634 498.757 286.651 499.401 287.332C501.649 289.709 503.897 292.086 506.145 294.463C506.621 294.965 507.198 295.508 507.877 295.436C508.732 295.346 509.201 294.26 508.997 293.402C508.793 292.545 508.142 291.887 507.52 291.277C505.546 289.343 503.571 287.409 501.597 285.475C501.174 285.061 500.732 284.635 500.179 284.441C499.625 284.247 498.925 284.355 498.595 284.851ZM546.199 338.231C545.455 338.241 544.949 339.109 545.017 339.87C545.084 340.631 545.545 341.286 545.99 341.898C547.59 344.102 549.189 346.306 550.789 348.509C551.101 348.939 551.428 349.383 551.891 349.63C552.354 349.877 552.994 349.865 553.33 349.455C553.814 348.865 553.397 347.98 552.975 347.342C551.227 344.702 549.479 342.061 547.731 339.421C547.355 338.853 546.868 338.222 546.199 338.231ZM571.883 372.078C569.875 369.592 567.867 367.106 565.858 364.62C565.617 364.321 565.351 364.005 564.985 363.905C564.27 363.711 563.593 364.502 563.588 365.261C563.582 366.02 564.022 366.698 564.455 367.313C565.794 369.211 567.242 371.027 568.79 372.749C569.34 373.361 569.969 373.997 570.774 374.1C571.58 374.202 572.5 373.433 572.238 372.645C572.167 372.431 572.024 372.252 571.883 372.078ZM505.209 314.444C505.716 315.007 506.311 315.613 507.058 315.624C507.805 315.635 508.475 314.594 507.915 314.087C505.639 312.024 503.618 309.665 501.917 307.084C501.46 306.391 500.979 305.642 500.222 305.332C499.465 305.023 498.381 305.456 498.362 306.292C498.351 306.788 498.7 307.205 499.027 307.57C501.088 309.861 503.149 312.152 505.209 314.444ZM546.838 303.494C547.069 305.28 548.742 306.744 550.497 306.696C550.785 306.688 551.092 306.635 551.301 306.431C551.505 306.23 551.572 305.928 551.629 305.644C551.894 304.319 551.912 302.524 550.666 302.083C550.153 301.901 549.578 302.041 549.053 301.9C548.686 301.801 548.347 301.565 547.967 301.567C547.139 301.569 546.729 302.651 546.838 303.494ZM480.555 364.963C480.044 364.4 479.272 364.147 478.523 364.122C478.114 364.108 477.689 364.16 477.34 364.38C477.025 364.578 476.796 364.9 476.649 365.248C475.985 366.826 477.349 368.92 479.019 368.791C480.69 368.662 481.697 366.221 480.555 364.963M513.052 338.048C513.768 338.009 514.405 337.366 514.454 336.632C514.477 336.281 514.378 335.923 514.178 335.638C513.58 334.784 512.078 334.92 511.635 335.868C511.191 336.817 512.028 338.104 513.052 338.048ZM520.242 313.868C520.521 314.044 520.822 314.228 521.15 314.217C521.478 314.206 521.817 313.907 521.746 313.578C520.473 312.376 519.2 311.174 517.927 309.972C517.597 310.734 517.848 311.656 518.345 312.316C518.843 312.976 519.55 313.429 520.242 313.868ZM540.523 336.46C541.018 336.9 541.813 336.145 541.678 335.487C541.544 334.828 540.925 334.413 540.36 334.072C539.794 333.731 539.175 333.32 539.035 332.662C538.215 333.904 539.417 335.478 540.523 336.46Z" fill="#00160A"/>
<path d="M196.912 507.061V502.421H182.219V527.027H187.07V517.536H196.631V512.896H187.07V507.061H196.912ZM212.075 509.452V518.942C212.075 522 210.423 523.301 208.209 523.301C206.17 523.301 204.729 522.071 204.729 519.68V509.452H200.194V520.243C200.194 524.918 203.112 527.519 206.838 527.519C209.193 527.519 211.021 526.64 212.075 525.058V527.027H216.61V509.452H212.075ZM231.055 513.81V509.452H227.083V504.53L222.549 505.901V509.452H219.491V513.81H222.549V521.122C222.549 525.867 224.693 527.73 231.055 527.027V522.914C228.454 523.055 227.083 523.02 227.083 521.122V513.81H231.055ZM246.366 509.452V518.942C246.366 522 244.714 523.301 242.5 523.301C240.461 523.301 239.02 522.071 239.02 519.68V509.452H234.485V520.243C234.485 524.918 237.403 527.519 241.129 527.519C243.484 527.519 245.312 526.64 246.366 525.058V527.027H250.901V509.452H246.366ZM259.828 512.475V509.452H255.293V527.027H259.828V518.626C259.828 514.935 262.816 513.881 265.171 514.162V509.1C262.956 509.1 260.742 510.084 259.828 512.475ZM271.242 520.102H284.493C284.599 519.505 284.669 518.907 284.669 518.239C284.669 513.072 280.978 508.959 275.776 508.959C270.257 508.959 266.496 513.002 266.496 518.239C266.496 523.477 270.222 527.519 276.128 527.519C279.502 527.519 282.138 526.148 283.79 523.758L280.135 521.649C279.361 522.668 277.955 523.406 276.198 523.406C273.808 523.406 271.874 522.422 271.242 520.102ZM271.171 516.587C271.699 514.337 273.351 513.037 275.776 513.037C277.674 513.037 279.572 514.056 280.135 516.587H271.171ZM299.351 507.343C300.898 507.343 302.163 506.077 302.163 504.566C302.163 503.054 300.898 501.754 299.351 501.754C297.84 501.754 296.574 503.054 296.574 504.566C296.574 506.077 297.84 507.343 299.351 507.343ZM297.102 527.027H301.636V509.452H297.102V527.027ZM310.072 514.443C310.072 513.494 310.985 513.002 312.11 513.002C313.411 513.002 314.395 513.67 314.922 514.794L318.789 512.685C317.418 510.26 314.957 508.959 312.11 508.959C308.49 508.959 305.432 510.963 305.432 514.548C305.432 520.735 314.5 519.329 314.5 521.895C314.5 522.914 313.516 523.406 312.075 523.406C310.318 523.406 309.122 522.563 308.63 521.122L304.693 523.336C305.959 526.043 308.56 527.519 312.075 527.519C315.836 527.519 319.14 525.691 319.14 521.895C319.14 515.427 310.072 517.044 310.072 514.443ZM345.942 502.421V517.431L335.397 502.421H331.706V527.027H336.557V511.982L347.102 527.027H350.793V502.421H345.942ZM363.752 527.519C368.919 527.519 373.067 523.477 373.067 518.239C373.067 513.002 368.919 508.959 363.752 508.959C358.585 508.959 354.472 513.002 354.472 518.239C354.472 523.477 358.585 527.519 363.752 527.519ZM363.752 523.09C361.08 523.09 359.006 521.086 359.006 518.239C359.006 515.392 361.08 513.388 363.752 513.388C366.458 513.388 368.532 515.392 368.532 518.239C368.532 521.086 366.458 523.09 363.752 523.09ZM395.6 509.452L392.612 520.278L389.413 509.452H385.125L381.926 520.243L378.938 509.452H374.122L379.711 527.027H384.035L387.269 516.376L390.503 527.027H394.826L400.415 509.452H395.6Z" fill="#060016"/>
</svg>
